<svg width="244" height="40" viewBox="0 0 244 40" fill="none" xmlns="http://www.w3.org/2000/svg">
<path fill-rule="evenodd" clip-rule="evenodd" d="M138.828 8.43005C138.163 9.08338 137.305 9.41005 136.255 9.41005C135.205 9.41005 134.348 9.08338 133.683 8.43005C133.018 7.77672 132.685 6.96005 132.685 5.98005C132.685 5.00005 133.018 4.18338 133.683 3.53005C134.348 2.87672 135.205 2.55005 136.255 2.55005C137.305 2.55005 138.163 2.87672 138.828 3.53005C139.493 4.18338 139.825 5.00005 139.825 5.98005C139.825 6.96005 139.493 7.77672 138.828 8.43005ZM65.3101 11.86V31.25H58.8351V11.86H52.7451V6.92505H71.7151L71.0501 11.86H65.3101ZM86.3101 31.1625C85.0501 31.6409 83.6851 31.8801 82.2151 31.8801C79.0418 31.8801 76.6326 30.9875 74.9876 29.2025C73.3426 27.4175 72.5201 25.02 72.5201 22.01C72.5201 20.12 72.8643 18.4167 73.5526 16.9C74.2409 15.3834 75.2618 14.1817 76.6151 13.295C77.9685 12.4084 79.6018 11.965 81.5151 11.965C84.2451 11.965 86.4035 12.8109 87.9901 14.5025C89.5768 16.1942 90.3701 18.5684 90.3701 21.625C90.3701 21.765 90.3351 22.465 90.2651 23.725H78.8551C79.0184 25.1484 79.4209 26.1225 80.0626 26.6475C80.7043 27.1725 81.6201 27.435 82.8101 27.435C83.5101 27.435 84.2043 27.3009 84.8926 27.0325C85.581 26.7642 86.3335 26.35 87.1501 25.79L89.6701 29.22C88.6901 30.0367 87.5701 30.6842 86.3101 31.1625ZM84.2451 20.085H78.8201C78.9368 18.5684 79.2168 17.5067 79.6601 16.9C80.1035 16.2934 80.7568 15.99 81.6201 15.99C82.5535 15.99 83.2185 16.3284 83.6151 17.005C84.0118 17.6817 84.2218 18.6384 84.2451 19.875V20.085ZM99.1201 18.65V31.25H92.8901V12.595H98.3151L98.7701 14.695C99.6101 13.7617 100.485 13.0734 101.395 12.63C102.305 12.1867 103.32 11.965 104.44 11.965C106.027 11.965 107.275 12.455 108.185 13.435C109.095 14.415 109.55 15.7917 109.55 17.565V31.25H103.32V18.685C103.32 17.8684 103.203 17.3025 102.97 16.9875C102.737 16.6725 102.387 16.515 101.92 16.515C100.94 16.515 100.007 17.2267 99.1201 18.65ZM119.245 31.25V18.65C120.132 17.2267 121.065 16.515 122.045 16.515C122.512 16.515 122.862 16.6725 123.095 16.9875C123.328 17.3025 123.445 17.8684 123.445 18.685V31.25H129.675V17.565C129.675 15.7917 129.22 14.415 128.31 13.435C127.4 12.455 126.152 11.965 124.565 11.965C123.445 11.965 122.43 12.1867 121.52 12.63C120.61 13.0734 119.735 13.7617 118.895 14.695L118.44 12.595H113.015V31.25H119.245ZM139.37 31.25V12.595H133.14V31.25H139.37ZM153.598 31.1101C152.303 31.6234 150.838 31.8801 149.205 31.8801C147.618 31.8801 146.131 31.6292 144.743 31.1275C143.354 30.6259 142.182 29.9317 141.225 29.045L144.2 25.72C144.923 26.28 145.699 26.7234 146.528 27.05C147.356 27.3767 148.19 27.54 149.03 27.54C149.777 27.54 150.354 27.4175 150.763 27.1726C151.171 26.9275 151.375 26.56 151.375 26.07C151.375 25.6967 151.288 25.405 151.113 25.195C150.938 24.985 150.605 24.7809 150.115 24.5826C149.625 24.3842 148.785 24.11 147.595 23.76C143.978 22.6867 142.17 20.715 142.17 17.845C142.17 16.7484 142.485 15.7509 143.115 14.8525C143.745 13.9542 144.649 13.2484 145.828 12.735C147.006 12.2217 148.412 11.965 150.045 11.965C151.398 11.965 152.688 12.175 153.913 12.595C155.138 13.015 156.182 13.5867 157.045 14.31L154.805 17.74C153.312 16.8067 151.807 16.34 150.29 16.34C149.637 16.34 149.153 16.4392 148.838 16.6375C148.523 16.8359 148.365 17.11 148.365 17.46C148.365 17.7634 148.447 18.0084 148.61 18.195C148.773 18.3817 149.118 18.5859 149.643 18.8075C150.168 19.0292 151.002 19.315 152.145 19.665C154.058 20.225 155.47 20.9542 156.38 21.8525C157.29 22.7509 157.745 24.005 157.745 25.615C157.745 26.875 157.378 27.9775 156.643 28.9226C155.908 29.8675 154.893 30.5967 153.598 31.1101ZM174.265 31.8801C175.898 31.8801 177.363 31.6234 178.658 31.1101C179.953 30.5967 180.968 29.8675 181.703 28.9226C182.438 27.9775 182.805 26.875 182.805 25.615C182.805 24.005 182.35 22.7509 181.44 21.8525C180.53 20.9542 179.118 20.225 177.205 19.665C176.062 19.315 175.228 19.0292 174.703 18.8075C174.178 18.5859 173.833 18.3817 173.67 18.195C173.507 18.0084 173.425 17.7634 173.425 17.46C173.425 17.11 173.583 16.8359 173.898 16.6375C174.213 16.4392 174.697 16.34 175.35 16.34C176.867 16.34 178.372 16.8067 179.865 17.74L182.105 14.31C181.242 13.5867 180.198 13.015 178.973 12.595C177.748 12.175 176.458 11.965 175.105 11.965C173.472 11.965 172.066 12.2217 170.888 12.735C169.709 13.2484 168.805 13.9542 168.175 14.8525C167.545 15.7509 167.23 16.7484 167.23 17.845C167.23 20.715 169.038 22.6867 172.655 23.76C173.845 24.11 174.685 24.3842 175.175 24.5826C175.665 24.7809 175.998 24.985 176.173 25.195C176.348 25.405 176.435 25.6967 176.435 26.07C176.435 26.56 176.231 26.9275 175.823 27.1726C175.414 27.4175 174.837 27.54 174.09 27.54C173.25 27.54 172.416 27.3767 171.588 27.05C170.759 26.7234 169.983 26.28 169.26 25.72L166.285 29.045C167.242 29.9317 168.414 30.6259 169.803 31.1275C171.191 31.6292 172.678 31.8801 174.265 31.8801ZM191.38 18.65V31.25H185.15V5.24505L191.38 4.61505V14.415C192.15 13.575 192.967 12.9567 193.83 12.56C194.693 12.1634 195.65 11.965 196.7 11.965C198.287 11.965 199.535 12.4609 200.445 13.4525C201.355 14.4442 201.81 15.815 201.81 17.565V31.25H195.58V18.685C195.58 17.8684 195.458 17.3025 195.213 16.9875C194.968 16.6725 194.612 16.515 194.145 16.515C193.188 16.515 192.267 17.2267 191.38 18.65ZM213.675 31.8801C215.588 31.8801 217.251 31.4717 218.663 30.655C220.074 29.8384 221.153 28.6834 221.9 27.19C222.647 25.6967 223.02 23.9467 223.02 21.94C223.02 18.79 222.192 16.34 220.535 14.59C218.878 12.84 216.592 11.965 213.675 11.965C211.762 11.965 210.099 12.3734 208.688 13.19C207.276 14.0067 206.197 15.1617 205.45 16.655C204.703 18.1484 204.33 19.8984 204.33 21.905C204.33 25.055 205.158 27.5051 206.815 29.2551C208.472 31.0051 210.758 31.8801 213.675 31.8801ZM211.453 26.0875C211.931 26.9392 212.672 27.365 213.675 27.365C214.678 27.365 215.419 26.9275 215.898 26.0525C216.376 25.1775 216.615 23.8067 216.615 21.94C216.615 20.0267 216.376 18.6384 215.898 17.775C215.419 16.9117 214.678 16.48 213.675 16.48C212.672 16.48 211.931 16.9175 211.453 17.7925C210.974 18.6675 210.735 20.0384 210.735 21.905C210.735 23.8417 210.974 25.2359 211.453 26.0875ZM225.715 39.09L231.945 38.46V29.99C233.065 31.25 234.547 31.8801 236.39 31.8801C237.86 31.8801 239.161 31.4484 240.293 30.585C241.424 29.7217 242.293 28.5317 242.9 27.015C243.507 25.4984 243.81 23.7834 243.81 21.87C243.81 18.7434 243.227 16.3109 242.06 14.5725C240.893 12.8342 239.143 11.965 236.81 11.965C235.853 11.965 234.914 12.1692 233.993 12.5775C233.071 12.9859 232.248 13.645 231.525 14.555L231.245 12.595H225.715V39.09ZM233.048 27.05C233.433 27.2834 233.882 27.4 234.395 27.4C236.378 27.4 237.37 25.58 237.37 21.94C237.37 19.8167 237.154 18.3759 236.723 17.6175C236.291 16.8592 235.643 16.48 234.78 16.48C233.66 16.48 232.715 17.1334 231.945 18.44V25.93C232.295 26.4434 232.663 26.8167 233.048 27.05Z" fill="#1D2E72"/>
<path d="M32.0087 5.49157C28.2335 1.71633 23.2486 -0.113568 18.3015 0.00545146L25.9424 7.64308C30.9616 12.699 30.9525 20.867 25.9104 25.9091C20.8683 30.9512 12.6986 30.9627 7.6451 25.9388V25.9411L0.00524846 18.3018C-0.111428 23.2472 1.71724 28.2344 5.49139 32.0086C12.8131 39.3304 24.6882 39.3304 32.0087 32.0086C39.3304 24.6846 39.3304 12.8134 32.0087 5.49157Z" fill="#2962FF"/>
<path d="M9.67226 23.8981C11.5717 25.7881 14.0956 26.8245 16.7776 26.8224C19.4573 26.8178 21.9802 25.7721 23.875 23.8754C25.772 21.9808 26.8179 19.4588 26.8224 16.7782C26.8269 14.0977 25.7903 11.5728 23.9002 9.67372L23.7926 9.56616L14.6769 0.450195C11.3107 1.19384 8.11163 2.87559 5.49377 5.49547C2.8781 8.113 1.19386 11.3095 0.450195 14.6765L9.57157 23.7997L9.67226 23.8981Z" fill="#2962FF"/>
</svg>
