<svg width="246" height="40" viewBox="0 0 246 40" fill="none" xmlns="http://www.w3.org/2000/svg">
<path fill-rule="evenodd" clip-rule="evenodd" d="M139.961 9.08503C139.291 9.7432 138.426 10.0723 137.368 10.0723C136.309 10.0723 135.444 9.7432 134.774 9.08503C134.104 8.42686 133.768 7.60414 133.768 6.61688C133.768 5.62962 134.104 4.80691 134.774 4.14874C135.444 3.49056 136.309 3.16148 137.368 3.16148C138.426 3.16148 139.291 3.49056 139.961 4.14874C140.631 4.80691 140.967 5.62962 140.967 6.61688C140.967 7.60414 140.631 8.42686 139.961 9.08503ZM65.8434 12.5404V32.0741H59.3155V12.5404H53.1758V7.56888H72.3006L71.6302 12.5404H65.8434ZM87.0148 31.9859C85.7445 32.4678 84.3684 32.7087 82.8864 32.7087C79.6871 32.7087 77.2583 31.8096 75.5999 30.0114C73.9414 28.2132 73.1122 25.7979 73.1122 22.7656C73.1122 20.8616 73.4592 19.1457 74.1531 17.6178C74.8471 16.0899 75.8763 14.8793 77.2406 13.9861C78.605 13.0928 80.2517 12.6462 82.1806 12.6462C84.9329 12.6462 87.1089 13.4983 88.7085 15.2025C90.3081 16.9067 91.1079 19.2985 91.1079 22.3778C91.1079 22.5188 91.0726 23.224 91.0021 24.4933H79.4989C79.6636 25.9272 80.0694 26.9086 80.7163 27.4375C81.3632 27.9664 82.2865 28.2308 83.4862 28.2308C84.1919 28.2308 84.8918 28.0956 85.5857 27.8253C86.2797 27.555 87.0383 27.1378 87.8616 26.5736L90.4022 30.029C89.4142 30.8517 88.2851 31.504 87.0148 31.9859ZM84.9329 20.8264H79.4636C79.5813 19.2985 79.8635 18.2289 80.3105 17.6178C80.7574 17.0066 81.4161 16.701 82.2865 16.701C83.2274 16.701 83.8979 17.0419 84.2978 17.7235C84.6977 18.4052 84.9094 19.369 84.9329 20.6148V20.8264ZM99.9294 19.3807V32.0741H93.6485V13.2809H99.1178L99.5765 15.3964C100.423 14.4562 101.305 13.7628 102.223 13.3161C103.14 12.8695 104.164 12.6462 105.293 12.6462C106.892 12.6462 108.151 13.1398 109.068 14.1271C109.986 15.1144 110.444 16.5012 110.444 18.2877V32.0741H104.164V19.416C104.164 18.5933 104.046 18.0233 103.811 17.7059C103.576 17.3886 103.223 17.2299 102.752 17.2299C101.764 17.2299 100.823 17.9469 99.9294 19.3807ZM120.219 32.0741V19.3807C121.113 17.9469 122.053 17.2299 123.041 17.2299C123.512 17.2299 123.865 17.3886 124.1 17.7059C124.335 18.0233 124.453 18.5933 124.453 19.416V32.0741H130.734V18.2877C130.734 16.5012 130.275 15.1144 129.358 14.1271C128.44 13.1398 127.182 12.6462 125.582 12.6462C124.453 12.6462 123.43 12.8695 122.512 13.3161C121.595 13.7628 120.713 14.4562 119.866 15.3964L119.407 13.2809H113.938V32.0741H120.219ZM140.508 32.0741V13.2809H134.227V32.0741H140.508ZM154.852 31.933C153.546 32.4502 152.07 32.7087 150.423 32.7087C148.824 32.7087 147.324 32.456 145.924 31.9507C144.525 31.4453 143.343 30.746 142.378 29.8527L145.377 26.5031C146.107 27.0673 146.889 27.5139 147.724 27.843C148.559 28.172 149.4 28.3366 150.247 28.3366C151 28.3366 151.582 28.2132 151.993 27.9664C152.405 27.7196 152.611 27.3493 152.611 26.8557C152.611 26.4796 152.523 26.1858 152.346 25.9742C152.17 25.7627 151.835 25.557 151.341 25.3572C150.847 25.1574 150 24.8812 148.8 24.5286C145.154 23.4473 143.331 21.461 143.331 18.5698C143.331 17.465 143.648 16.4601 144.283 15.5551C144.919 14.6501 145.83 13.9391 147.018 13.4219C148.206 12.9048 149.623 12.6462 151.27 12.6462C152.634 12.6462 153.934 12.8578 155.169 13.2809C156.404 13.704 157.457 14.2799 158.327 15.0086L156.069 18.464C154.563 17.5237 153.046 17.0536 151.517 17.0536C150.858 17.0536 150.37 17.1535 150.053 17.3533C149.735 17.5531 149.576 17.8293 149.576 18.1819C149.576 18.4875 149.659 18.7343 149.823 18.9224C149.988 19.1104 150.335 19.3161 150.864 19.5394C151.394 19.7627 152.235 20.0507 153.387 20.4033C155.316 20.9674 156.739 21.702 157.657 22.607C158.574 23.5119 159.033 24.7754 159.033 26.3973C159.033 27.6667 158.662 28.7773 157.921 29.7293C157.18 30.6813 156.157 31.4159 154.852 31.933ZM175.688 32.7087C177.334 32.7087 178.811 32.4502 180.116 31.933C181.422 31.4159 182.445 30.6813 183.186 29.7293C183.927 28.7773 184.298 27.6667 184.298 26.3973C184.298 24.7754 183.839 23.5119 182.921 22.607C182.004 21.702 180.581 20.9674 178.652 20.4033C177.499 20.0507 176.658 19.7627 176.129 19.5394C175.6 19.3161 175.253 19.1104 175.088 18.9224C174.923 18.7343 174.841 18.4875 174.841 18.1819C174.841 17.8293 175 17.5531 175.317 17.3533C175.635 17.1535 176.123 17.0536 176.782 17.0536C178.311 17.0536 179.828 17.5237 181.333 18.464L183.592 15.0086C182.721 14.2799 181.669 13.704 180.434 13.2809C179.199 12.8578 177.899 12.6462 176.535 12.6462C174.888 12.6462 173.471 12.9048 172.283 13.4219C171.095 13.9391 170.183 14.6501 169.548 15.5551C168.913 16.4601 168.595 17.465 168.595 18.5698C168.595 21.461 170.418 23.4473 174.065 24.5286C175.264 24.8812 176.111 25.1574 176.605 25.3572C177.099 25.557 177.434 25.7627 177.611 25.9742C177.787 26.1858 177.875 26.4796 177.875 26.8557C177.875 27.3493 177.67 27.7196 177.258 27.9664C176.846 28.2132 176.264 28.3366 175.511 28.3366C174.664 28.3366 173.824 28.172 172.988 27.843C172.153 27.5139 171.371 27.0673 170.642 26.5031L167.643 29.8527C168.607 30.746 169.789 31.4453 171.189 31.9507C172.589 32.456 174.088 32.7087 175.688 32.7087ZM192.942 19.3807V32.0741H186.662V5.87644L192.942 5.24177V15.1144C193.719 14.2681 194.542 13.6452 195.412 13.2456C196.283 12.846 197.247 12.6462 198.306 12.6462C199.906 12.6462 201.164 13.1457 202.081 14.1447C202.999 15.1437 203.458 16.5247 203.458 18.2877V32.0741H197.177V19.416C197.177 18.5933 197.053 18.0233 196.806 17.7059C196.559 17.3886 196.201 17.2299 195.73 17.2299C194.766 17.2299 193.836 17.9469 192.942 19.3807ZM215.419 32.7087C217.348 32.7087 219.025 32.2974 220.448 31.4747C221.871 30.6519 222.959 29.4884 223.712 27.984C224.464 26.4796 224.841 24.7166 224.841 22.6951C224.841 19.5218 224.006 17.0536 222.335 15.2907C220.665 13.5277 218.36 12.6462 215.419 12.6462C213.491 12.6462 211.814 13.0576 210.391 13.8803C208.968 14.703 207.88 15.8666 207.127 17.371C206.375 18.8754 205.998 20.6383 205.998 22.6598C205.998 25.8332 206.833 28.3013 208.503 30.0643C210.174 31.8273 212.479 32.7087 215.419 32.7087ZM213.179 26.8733C213.661 27.7313 214.408 28.1603 215.419 28.1603C216.431 28.1603 217.178 27.7196 217.66 26.8381C218.142 25.9566 218.383 24.5756 218.383 22.6951C218.383 20.7676 218.142 19.369 217.66 18.4993C217.178 17.6295 216.431 17.1947 215.419 17.1947C214.408 17.1947 213.661 17.6354 213.179 18.5169C212.697 19.3984 212.455 20.7794 212.455 22.6598C212.455 24.6109 212.697 26.0154 213.179 26.8733ZM227.558 39.9721L233.839 39.3375V30.8047C234.968 32.0741 236.462 32.7087 238.32 32.7087C239.802 32.7087 241.113 32.2739 242.254 31.4041C243.395 30.5344 244.271 29.3356 244.883 27.8077C245.495 26.2798 245.801 24.5521 245.801 22.6246C245.801 19.4748 245.212 17.0242 244.036 15.273C242.86 13.5218 241.096 12.6462 238.743 12.6462C237.779 12.6462 236.832 12.8519 235.903 13.2633C234.974 13.6746 234.144 14.3387 233.415 15.2554L233.133 13.2809H227.558V39.9721ZM234.95 27.843C235.338 28.078 235.791 28.1955 236.309 28.1955C238.308 28.1955 239.308 26.3621 239.308 22.6951C239.308 20.556 239.09 19.1045 238.655 18.3406C238.22 17.5766 237.567 17.1947 236.697 17.1947C235.568 17.1947 234.615 17.8528 233.839 19.1692V26.7147C234.191 27.2318 234.562 27.6079 234.95 27.843Z" fill="#1D2E72"/>
<path d="M32.27 6.12483C28.464 2.32164 23.4384 0.478181 18.4509 0.598082L26.1542 8.29228C31.2144 13.3856 31.2052 21.6142 26.1219 26.6936C21.0386 31.7731 12.8023 31.7846 7.70751 26.7235V26.7258L0.00529131 19.0299C-0.112338 24.012 1.73125 29.0362 5.53621 32.8383C12.9177 40.2144 24.8898 40.2144 32.27 32.8383C39.6515 25.46 39.6515 13.5009 32.27 6.12483Z" fill="#2962FF"/>
<path d="M9.75145 24.6677C11.6664 26.5718 14.2109 27.6159 16.9148 27.6137C19.6163 27.6091 22.1599 26.5557 24.0701 24.6449C25.9826 22.7363 27.037 20.1956 27.0416 17.4951C27.0462 14.7948 26.001 12.2512 24.0955 10.338L23.9871 10.2297L14.797 1.04618C11.4033 1.79533 8.17808 3.48954 5.53885 6.12883C2.90182 8.76575 1.20383 11.9859 0.454102 15.3778L9.64993 24.5686L9.75145 24.6677Z" fill="#2962FF"/>
</svg>
