<?xml version="1.0"?>
<svg xmlns="http://www.w3.org/2000/svg" height="512px" viewBox="1 0 511.999 511" width="512px" class=""><g><path d="m343.527344 330.953125c-19.335938-19.335937-50.796875-19.335937-70.132813 0l-15.863281 15.863281c-2.609375 2.609375-6.082031 4.050782-9.773438 4.050782-3.691406 0-7.164062-1.441407-9.773437-4.050782l-72.359375-72.359375c-2.609375-2.609375-4.046875-6.082031-4.046875-9.773437s1.4375-7.164063 4.046875-9.773438l.261719-.261718c.296875-.234376.585937-.484376.859375-.757813.273437-.273437.523437-.5625.757812-.859375l13.984375-13.984375c9.367188-9.367187 14.527344-21.820313 14.527344-35.066406 0-13.246094-5.160156-25.699219-14.523437-35.0625l-52.195313-52.195313c-19.335937-19.335937-50.792969-19.335937-70.128906 0l-14.78125 14.78125c-.003907.003906-.007813.007813-.011719.011719s-.007812.007813-.011719.011719l-7.457031 7.457031c-49.207031 49.210937-49.207031 129.28125 0 178.488281l158.113281 158.113282c24.605469 24.605468 56.925781 36.90625 89.246094 36.90625s64.640625-12.300782 89.242187-36.90625l7.464844-7.464844h.003906c0-.003906 0-.003906.003907-.003906l14.789062-14.792969c19.335938-19.332031 19.335938-50.792969 0-70.128907zm-228.375-200.085937 52.191406 52.191406c5.589844 5.589844 8.667969 13.019531 8.667969 20.921875 0 7.902343-3.078125 15.332031-8.667969 20.917969l-7.71875 7.722656-94.035156-94.035156 7.71875-7.722657c11.539062-11.535156 30.308594-11.53125 41.84375.003907zm94.007812 330.574218-158.109375-158.113281c-41.410156-41.410156-41.410156-108.789063 0-150.203125l.394531-.394531 94.792969 94.792969c-3.039062 5.144531-4.664062 11.027343-4.664062 17.160156 0 9.035156 3.519531 17.527344 9.90625 23.917968l72.359375 72.359376c6.390625 6.386718 14.882812 9.90625 23.917968 9.90625 6.132813 0 12.015626-1.625 17.160157-4.664063l94.84375 94.84375-.394531.394531c-41.414063 41.410156-108.792969 41.410156-150.207032 0zm172.464844-22.261718-7.722656 7.722656-94.085938-94.085938 7.722656-7.71875c11.539063-11.535156 30.308594-11.535156 41.84375 0l52.242188 52.242188c11.535156 11.535156 11.535156 30.304687 0 41.839844zm0 0" data-original="#000000" class="active-path" data-old_color="#c0c0c0" fill="#c0c0c0"/><path d="m482.097656 59.625c-18.914062-25.066406-45.808594-43.832031-75.726562-52.839844-5.289063-1.59375-10.867188 1.402344-12.460938 6.691406-1.59375 5.285157 1.402344 10.867188 6.691406 12.457032 53.8125 16.207031 91.394532 66.820312 91.394532 123.078125 0 70.863281-57.652344 128.515625-128.515625 128.515625-25.984375 0-51.015625-7.722656-72.394531-22.324219-2.40625-1.644531-5.414063-2.160156-8.226563-1.402344l-31.707031 8.496094 8.414062-31.402344c.761719-2.855469.226563-5.898437-1.464844-8.320312-15.136718-21.636719-23.132812-47.074219-23.132812-73.5625 0-56.257813 37.582031-106.871094 91.390625-123.078125 5.289063-1.589844 8.285156-7.171875 6.691406-12.457032-1.589843-5.292968-7.167969-8.289062-12.457031-6.691406-29.917969 9.007813-56.8125 27.773438-75.730469 52.839844-19.558593 25.921875-29.898437 56.828125-29.898437 89.386719 0 29.027343 8.316406 56.972656 24.097656 81.113281l-11.714844 43.726562c-.925781 3.453126.0625 7.132813 2.585938 9.660157 2.527344 2.527343 6.210937 3.515625 9.660156 2.589843l44.097656-11.816406c23.835938 15.222656 51.320313 23.242188 79.789063 23.242188 81.894531 0 148.519531-66.625 148.519531-148.515625 0-32.558594-10.339844-63.46875-29.902344-89.386719zm0 0" data-original="#000000" class="active-path" data-old_color="#c0c0c0" fill="#c0c0c0"/><path d="m319.558594 85.835938v50.007812h-4.125c-4.339844 0-7.875-3.535156-7.875-7.878906v-42.128906c0-5.523438-4.476563-10-10-10-5.523438 0-10.003906 4.476562-10.003906 10v42.128906c0 15.375 12.507812 27.878906 27.878906 27.878906h4.125v60.675781c0 5.523438 4.480468 10 10.003906 10s10-4.476562 10-10v-60.675781h4.125c15.371094 0 27.878906-12.503906 27.878906-27.878906v-42.128906c0-5.523438-4.476562-10-10-10-5.523437 0-10.003906 4.476562-10.003906 10v42.128906c0 4.34375-3.53125 7.878906-7.875 7.878906h-4.125v-50.007812c0-5.523438-4.476562-10-10-10s-10.003906 4.476562-10.003906 10zm0 0" data-original="#000000" class="active-path" data-old_color="#c0c0c0" fill="#c0c0c0"/><path d="m400.292969 226.519531c5.523437 0 10-4.476562 10-10.003906v-35.230469h26.785156c5.523437 0 10-4.476562 10-10v-13.832031c0-31.550781-15.3125-61.363281-40.960937-79.746094-3.046876-2.183593-7.058594-2.480469-10.394532-.769531-3.335937 1.714844-5.433594 5.148438-5.433594 8.898438v130.683593c0 5.523438 4.480469 10 10.003907 10zm10-117.417969c10.726562 13.628907 16.78125 30.648438 16.78125 48.351563v3.828125h-16.78125zm0 0" data-original="#000000" class="active-path" data-old_color="#c0c0c0" fill="#c0c0c0"/><path d="m363.480469 20.511719c5.523437 0 10.003906-4.480469 10.003906-10.003907v-.015624c0-5.523438-4.480469-9.992188-10.003906-9.992188-5.523438 0-10 4.484375-10 10.007812 0 5.523438 4.476562 10.003907 10 10.003907zm0 0" data-original="#000000" class="active-path" data-old_color="#c0c0c0" fill="#c0c0c0"/></g> </svg>
