<?xml version="1.0"?>
<svg xmlns="http://www.w3.org/2000/svg" height="512px" viewBox="0 0 56 56" width="512px" class=""><g><g id="Page-1" fill="none" fill-rule="evenodd"><g id="029---Image-Filters" fill="rgb(0,0,0)" fill-rule="nonzero"><circle id="Oval" cx="28" cy="24" r="2" data-original="#000000" class="active-path" data-old_color="#000000" fill="#c0c0c0"/><path id="Shape" d="m11 28c0 9.3888407 7.6111593 17 17 17s17-7.6111593 17-17-7.6111593-17-17-17c-9.3845001.010471-16.989529 7.6154999-17 17zm25 .142v-9.142c0-.5522847.4477153-1 1-1s1 .4477153 1 1v9.142c1.7642024.4490235 2.9990647 2.0375517 2.9990647 3.858s-1.2348623 3.4089765-2.9990647 3.858v1.142c0 .5522847-.4477153 1-1 1s-1-.4477153-1-1v-1.142c-1.7642024-.4490235-2.9990647-2.0375517-2.9990647-3.858s1.2348623-3.4089765 2.9990647-3.858zm-9-8v-1.142c0-.5522847.4477153-1 1-1s1 .4477153 1 1v1.142c1.7642024.4490235 2.9990647 2.0375517 2.9990647 3.858s-1.2348623 3.4089765-2.9990647 3.858v9.142c0 .5522847-.4477153 1-1 1s-1-.4477153-1-1v-9.142c-1.7642024-.4490235-2.9990647-2.0375517-2.9990647-3.858s1.2348623-3.4089765 2.9990647-3.858zm-9 8v-9.142c0-.5522847.4477153-1 1-1s1 .4477153 1 1v9.142c1.7642024.4490235 2.9990647 2.0375517 2.9990647 3.858s-1.2348623 3.4089765-2.9990647 3.858v1.142c0 .5522847-.4477153 1-1 1s-1-.4477153-1-1v-1.142c-1.7642024-.4490235-2.9990647-2.0375517-2.9990647-3.858s1.2348623-3.4089765 2.9990647-3.858z" data-original="#000000" class="active-path" data-old_color="#000000" fill="#c0c0c0"/><circle id="Oval" cx="19" cy="32" r="2" data-original="#000000" class="active-path" data-old_color="#000000" fill="#c0c0c0"/><circle id="Oval" cx="37" cy="32" r="2" data-original="#000000" class="active-path" data-old_color="#000000" fill="#c0c0c0"/><path id="Shape" d="m28 9h20.543c-6.1424717-6.68014941-15.1542849-9.94889536-24.151-8.76l-6.892 11.937c3.1085934-2.074513 6.7627621-3.18016008 10.5-3.177z" data-original="#000000" class="active-path" data-old_color="#000000" fill="#c0c0c0"/><path id="Shape" d="m28 47h-20.543c6.1424717 6.6801494 15.1542849 9.9488954 24.151 8.76l6.892-11.938c-3.1084037 2.0750311-6.7626322 3.1810443-10.5 3.178z" data-original="#000000" class="active-path" data-old_color="#000000" fill="#c0c0c0"/><path id="Shape" d="m47 28c-.0009869 3.3328091-.8849792 6.6058579-2.562 9.486l.019.012-.189.33-10.088 17.472c8.8395179-2.0171211 16.1626323-8.1754485 19.666-16.538l-6.907-11.962c.025.4.061.8.061 1.2z" data-original="#000000" class="active-path" data-old_color="#000000" fill="#c0c0c0"/><path id="Shape" d="m9 28c.00072997-3.3340542.88545709-6.6083036 2.564-9.489l-.02-.011 10.276-17.8c-8.8397327 2.01732737-16.16289037 8.17606349-19.666 16.539l6.907 11.961c-.025-.4-.061-.795-.061-1.2z" data-original="#000000" class="active-path" data-old_color="#000000" fill="#c0c0c0"/><path id="Shape" d="m50.228 11h-13.794c3.3437799 1.6674912 6.1251974 4.2788945 8 7.511l.02-.011 10.287 17.811c2.6932679-8.6693874 1.0105783-18.1066921-4.513-25.311z" data-original="#000000" class="active-path" data-old_color="#000000" fill="#c0c0c0"/><path id="Shape" d="m11.562 37.485-.02.012-.24-.42-10.043-17.388c-2.6932679 8.6693874-1.01057832 18.1066921 4.513 25.311h13.794c-3.3457414-1.668023-6.128648-4.2809095-8.004-7.515z" data-original="#000000" class="active-path" data-old_color="#000000" fill="#c0c0c0"/></g></g></g> </svg>
