<?xml version="1.0"?>
<svg xmlns="http://www.w3.org/2000/svg" xmlns:xlink="http://www.w3.org/1999/xlink" version="1.1" id="Capa_1" x="0px" y="0px" viewBox="0 0 428.071 428.071" style="enable-background:new 0 0 428.071 428.071;" xml:space="preserve" width="512px" height="512px" class=""><g><g>
	<g>
		<path d="M427.996,246.427c-0.162-1.182-0.586-2.312-1.241-3.309l-48-72.72c-1.472-2.235-3.964-3.586-6.64-3.6H55.636    c-0.959,0.017-1.908,0.207-2.8,0.56h-0.56c-0.799,0.384-1.529,0.897-2.16,1.52c-0.291,0.299-0.559,0.62-0.8,0.96l-48,72.72    c-2.427,3.692-1.401,8.653,2.291,11.079c0.997,0.655,2.127,1.079,3.309,1.241l-0.4,0.24l41.12,5.76v115.04    c-0.11,3.766,2.423,7.097,6.08,8l155.6,38c1.261,0.312,2.579,0.312,3.84,0l155.6-38.24c3.657-0.903,6.19-4.234,6.08-8v-113.76    l46.32-6.48C425.533,254.839,428.596,250.805,427.996,246.427z M21.316,241.039l38.56-58.56h141.76l-50.56,76.64L21.316,241.039z     M203.236,403.919l-139.6-34.32v-106.48l90.24,12.56h1.12c2.676-0.014,5.168-1.365,6.64-3.6l41.6-63.04V403.919z M358.836,369.599    l-139.6,34.32v-202.8l46.88,71.04c1.472,2.235,3.964,3.586,6.64,3.6h1.12l84.96-11.84V369.599z M276.676,259.119l-50.56-76.64    h140.72h0.96l38.64,58.56L276.676,259.119z" data-original="#000000" class="active-path" data-old_color="#c0c0c0" fill="#c0c0c0"/>
	</g>
</g><g>
	<g>
		<path d="M200.556,84.359c-2.563-3.601-7.559-4.443-11.16-1.88l-37.44,27.44v-96c0-4.418-3.582-8-8-8s-8,3.582-8,8v96l-37.44-26.56    c-3.601-2.563-8.597-1.721-11.16,1.88c-2.563,3.601-1.721,8.597,1.88,11.16l50.08,35.44h0.48h0.48h0.88h0.64    c0.717,0.098,1.443,0.098,2.16,0c1.111-0.042,2.201-0.314,3.2-0.8h0.72h0.72l50.08-35.52    C202.276,92.956,203.118,87.96,200.556,84.359z" data-original="#000000" class="active-path" data-old_color="#c0c0c0" fill="#c0c0c0"/>
	</g>
</g><g>
	<g>
		<path d="M333.756,84.359c-2.563-3.601-7.559-4.443-11.16-1.88l-37.44,27.44v-96c0-4.418-3.582-8-8-8s-8,3.582-8,8v96l-37.44-26.56    c-3.601-2.563-8.597-1.721-11.16,1.88c-2.563,3.601-1.721,8.597,1.88,11.16l50.08,35.44h0.48h0.48h0.88h0.64    c0.717,0.098,1.443,0.098,2.16,0c1.111-0.042,2.201-0.314,3.2-0.8h0.72h0.72l50.08-35.52    C335.477,92.956,336.318,87.96,333.756,84.359z" data-original="#000000" class="active-path" data-old_color="#c0c0c0" fill="#c0c0c0"/>
	</g>
</g></g> </svg>
