<?xml version="1.0" encoding="utf-8"?>
<!-- Svg Vector Icons : http://www.onlinewebfonts.com/icon -->
<!DOCTYPE svg PUBLIC "-//W3C//DTD SVG 1.1//EN" "http://www.w3.org/Graphics/SVG/1.1/DTD/svg11.dtd">
<svg version="1.1" xmlns="http://www.w3.org/2000/svg" xmlns:xlink="http://www.w3.org/1999/xlink" x="0px" y="0px" viewBox="0 0 1000 1000" enable-background="new 0 0 1000 1000" xml:space="preserve">
<metadata> Svg Vector Icons : http://www.onlinewebfonts.com/icon </metadata>
<g><g transform="translate(0.000000,512.000000) scale(0.100000,-0.100000)"><path fill="#c0c0c0"  d="M2833,4996.9c-107.2-38.3-185.7-103.4-233.6-189.6l-42.1-80.4l-5.7-1784.5l-3.8-1786.4l67-3.8c36.4-1.9,80.4-3.8,97.6-3.8c28.7-1.9,32.5,145.5,34.5,1759.6c1.9,1895.5-1.9,1813.2,101.5,1882.1c49.8,30.6,243.2,32.5,3375.5,32.5c3580.4,0,3371.7,5.7,3442.5-99.6c30.7-49.8,32.6-256.6,32.6-3653.2v-3599.6l-842.5-9.6c-773.5-9.6-848.2-13.4-909.5-46c-93.8-49.8-187.6-141.7-235.5-231.7c-40.2-74.7-42.1-101.5-51.7-919l-9.6-842.4l-2349.3-1.9c-1610.2,0-2368.4,5.7-2410.5,19.2c-34.5,11.5-80.4,45.9-101.5,74.7c-40.2,53.6-40.2,72.8-44,966.9c-1.9,501.6-3.8,976.5-3.8,1053.1l-1.9,137.9h-95.7h-97.7l5.8-1077.9l5.7-1076l53.6-90c34.5-59.3,84.3-109.1,143.6-143.6l90-53.6l2508.2-5.7l2508.2-3.8l1020.5,1020.5L9900-2740.2l-3.8,3733.6l-5.7,3733.6l-53.6,90c-34.5,59.3-84.3,109.1-143.6,143.6l-90,53.6l-3350.6,3.8C3547.2,5021.8,2888.5,5018,2833,4996.9z M8741.6-3611.4l-880.7-880.7l-5.7,750.5c-3.8,750.6-3.8,752.5,40.2,836.7c30.6,59.3,68.9,99.6,126.4,130.2c84.2,44,86.2,44,842.4,44h758.2L8741.6-3611.4z"/><path fill="#c0c0c0"  d="M7774.7,3396.3c-220.2-442.3-402.1-808-402.1-813.7c0-5.7,47.9-9.6,105.3-9.6h105.3l402.1,804.1c220.2,442.3,402.1,808,402.1,813.7s-47.9,9.6-105.3,9.6h-105.3L7774.7,3396.3z"/><path fill="#c0c0c0"  d="M3491.7,3993.6l-120.6-5.7v-93.8v-95.7h1227.3h1227.3l-13.4,91.9c-7.6,49.8-17.2,93.8-21.1,97.7C5783.5,3997.5,3669.7,4001.3,3491.7,3993.6z"/><path fill="#c0c0c0"  d="M6258.3,3995.6c-26.8-5.7-34.5-28.7-34.5-103.4v-93.8h95.7h95.7v105.3V4009l-61.3-1.9C6319.6,4005.1,6275.6,4001.3,6258.3,3995.6z"/><path fill="#c0c0c0"  d="M3371,3086.1v-101.5l1200.5,3.8c662.5,1.9,1208.1,3.8,1215.8,3.8c23,3.8,38.3,78.5,24.9,135.9l-13.4,57.4H4584.9H3371V3086.1z"/><path fill="#c0c0c0"  d="M6223.9,3089.9v-95.7h95.7h95.7v95.7v95.7h-95.7h-95.7V3089.9z"/><path fill="#c0c0c0"  d="M7047.2,1653.9v-95.7h1014.8h1014.8v95.7v95.7H8061.9H7047.2V1653.9z"/><path fill="#c0c0c0"  d="M1776.1,1631c-30.6-23-453.8-1252.2-453.8-1317.3c0-17.2,44-72.8,97.6-124.5c53.6-53.6,139.8-145.5,193.4-206.8c139.8-160.8,126.4-168.5-248.9-162.7l-298.7,5.7L767.1,323.3C502.9,765.5,462.7,821.1,414.8,826.8c-65.1,7.7-107.2-24.9-107.2-84.2c0-30.6,580.1-1037.7,643.3-1116.3c3.8-3.8,135.9-5.7,294.9-5.7c157,1.9,287.2-1.9,287.2-7.7c0-3.8-17.2-57.4-36.4-118.7c-21.1-59.4-42.1-149.4-49.8-199.1l-13.4-91.9h-208.7H1016l-448-218.3c-463.3-224-497.8-250.8-453.8-335.1c42.1-76.6,82.3-65.1,530.4,151.3L1083-986.4l172.3-7.6l172.3-9.6l23-111.1c13.4-63.2,23-124.5,24.9-135.9c0-13.4-166.6-107.2-369.5-208.7c-201-101.5-369.5-185.7-373.3-189.5c-13.4-11.5-425.1-1370.9-425.1-1403.4c0-19.1,9.6-44,23-57.4c28.7-28.7,114.9-30.6,141.7-3.8c11.5,11.5,111,314,220.2,674l199.1,651l333.2,166.6c310.2,155.1,333.1,162.7,354.2,128.3c344.6-572.5,1032-785,1614.1-497.8c168.5,84.2,386.7,279.6,484.4,434.6l65.1,105.3l327.4-162.7c178.1-90,327.4-164.6,331.2-168.5c1.9-1.9,93.8-294.9,203-649.1c109.1-354.2,208.7-656.7,222.1-672c36.4-44,128.3-36.4,155.1,13.4c19.2,34.5-11.5,151.2-195.3,742.9l-216.3,704.6l-375.3,185.7l-375.3,185.7l26.8,139.8l26.8,137.9l176.1,1.9l174.2,1.9l434.6-212.5c392.5-193.4,440.4-210.6,484.4-191.5c55.5,26.8,67,116.8,17.2,158.9c-15.3,13.4-220.2,116.8-451.9,231.7l-421.2,206.8h-206.8h-204.9l-42.1,168.5c-23,91.9-46,185.7-51.7,206.8c-11.5,40.2-7.7,40.2,254.6,38.3c145.5-1.9,275.7,0,289.1,3.8c28.7,9.6,674,1079.9,674,1120.1c0,38.3-63.2,90-111,90c-49.8,0-51.7-3.8-386.8-559.1l-271.9-455.7h-300.6c-270,0-300.6,3.8-321.7,36.4c-19.2,30.6-1.9,55.5,141.7,195.3c88.1,88.1,178.1,183.8,201,214.4l38.3,51.7l-214.4,639.5c-130.2,392.5-225.9,651-248.9,672c-49.8,45.9-130.2,24.9-145.5-38.3c-7.7-30.6,49.8-231.7,183.8-631.8c107.2-321.7,191.5-591.6,187.6-601.2c-3.8-9.6-72.8-86.2-153.2-172.3l-149.3-157l-99.6,70.8l-101.5,72.8v162.7c0,141.7-7.7,178.1-51.7,264.2c-113,214.4-279.5,317.8-528.4,327.4c-147.4,7.7-168.5,3.8-281.5-51.7c-139.8-68.9-225.9-158.9-291-300.6c-38.3-84.2-44-126.4-40.2-250.8l5.7-149.3l-105.3-74.7l-105.3-74.7l-155.1,166.6l-157,168.5l199.1,595.4C1845,1278.7,1935,1554.4,1935,1562c0,24.9-74.7,91.9-101.5,91.9C1820.2,1653.9,1793.4,1642.4,1776.1,1631z M2836.8,690.9c103.4-53.6,201-193.4,218.3-308.3c9.6-55.5,1.9-122.5-19.2-195.3c-30.6-107.2-30.6-113,1.9-132.1c388.7-222.1,570.6-465.3,626.1-834.8c51.7-360-128.3-754.4-440.4-961.1c-421.2-279.6-934.3-231.7-1288.6,118.7c-327.4,327.4-398.2,779.3-189.5,1192.8C1822.1-278,2021.2-78.8,2178.2,3.5L2295,64.8l-26.8,101.5c-34.5,130.2-34.5,227.9,3.8,315.9C2362,700.4,2628.2,800,2836.8,690.9z"/><path fill="#c0c0c0"  d="M7047.2,635.3V533.9h1014.8h1014.8v101.5v99.6H8061.9H7047.2V635.3z"/><path fill="#c0c0c0"  d="M7047.2-389v-101.5h1014.8h1014.8v95.7c0,78.5-5.7,95.7-32.5,97.6c-19.2,1.9-476.7,3.8-1014.8,5.7l-982.2,1.9V-389z"/><path fill="#c0c0c0"  d="M7047.2-1409.5v-95.7h1014.8h1014.8v95.7v95.7H8061.9H7047.2V-1409.5z"/></g></g>
</svg>
