<?xml version="1.0"?>
<svg xmlns="http://www.w3.org/2000/svg" height="512px" viewBox="0 0 512 512" width="512px"><g><path d="m420.433594 91.5625c-28.816406-28.816406-67.128906-44.6875-107.882813-44.6875-40.753906 0-79.070312 15.871094-107.886719 44.6875-28.816406 28.816406-44.6875 67.132812-44.6875 107.886719 0 40.753906 15.871094 79.066406 44.6875 107.882812 28.816407 28.816407 67.132813 44.6875 107.886719 44.6875 40.753907 0 79.066407-15.871093 107.882813-44.6875 28.816406-28.816406 44.6875-67.132812 44.6875-107.882812.003906-40.753907-15.867188-79.070313-44.6875-107.886719zm-148.742188 223.515625-.019531-42.257813c0-1.6875.960937-2.878906 1.535156-3.441406.613281-.597656 1.925781-1.605468 3.839844-1.605468 11.808594 0 23.738281-.007813 35.671875-.015626 11.925781-.007812 23.851562-.015624 35.652344-.015624 1.804687 0 3.011718.9375 3.570312 1.496093.554688.554688 1.488282 1.757813 1.488282 3.554688l-.023438 42.285156c-12.949219 4.5625-26.71875 6.945313-40.855469 6.945313s-27.910156-2.382813-40.859375-6.945313zm127.535156-28.957031c-4.941406 4.941406-10.234374 9.40625-15.816406 13.378906l.011719-26.691406c.007813-9.351563-3.644531-18.152344-10.277344-24.785156-6.625-6.625-15.425781-10.277344-24.773437-10.277344-11.808594 0-23.738282.007812-35.671875.015625-11.925781.007812-23.851563.015625-35.65625.015625-9.304688 0-18.121094 3.609375-24.820313 10.164062-6.804687 6.664063-10.550781 15.503906-10.546875 24.894532l.015625 26.660156c-5.582031-3.96875-10.875-8.433594-15.816406-13.375-23.152344-23.152344-35.902344-53.933594-35.902344-86.675782 0-32.742187 12.75-63.523437 35.902344-86.675781 23.152344-23.152343 53.933594-35.902343 86.675781-35.902343 32.742188 0 63.523438 12.75 86.675781 35.902343 23.152344 23.152344 35.902344 53.933594 35.902344 86.675781 0 32.742188-12.753906 63.527344-35.902344 86.675782zm0 0" data-original="#000000" class="active-path" data-old_color="#000000" fill="#C0C0C0"/><path d="m453.582031 58.417969c-37.671875-37.671875-87.757812-58.417969-141.03125-58.417969-53.273437 0-103.359375 20.746094-141.03125 58.417969-37.671875 37.667969-58.417969 87.753906-58.417969 141.03125 0 28.253906 5.835938 55.613281 16.941407 80.699219l-109.003907 109c-13.566406 13.570312-21.039062 31.648437-21.039062 50.90625 0 19.261718 7.472656 37.339843 21.039062 50.90625 13.566407 13.566406 31.644532 21.039062 50.90625 21.039062 19.257813 0 37.335938-7.472656 50.902344-21.039062l109.085938-109.085938c25.601562 11.277344 53.109375 16.929688 80.617187 16.929688 51.074219 0 102.148438-19.441407 141.03125-58.324219 37.667969-37.671875 58.414063-87.757813 58.414063-141.03125 0-53.277344-20.746094-103.363281-58.414063-141.03125zm-351.945312 411.332031c-7.898438 7.902344-18.445313 12.253906-29.691407 12.253906-11.25 0-21.792968-4.351562-29.695312-12.253906s-12.253906-18.449219-12.253906-29.695312c0-11.246094 4.351562-21.792969 12.253906-29.695313l102.699219-102.699219c7.59375 11.710938 16.464843 22.714844 26.570312 32.820313 10.183594 10.183593 21.210938 19.023437 32.851563 26.539062zm330.734375-150.480469c-66.070313 66.070313-173.574219 66.070313-239.644532 0-32.003906-32.003906-49.628906-74.558593-49.628906-119.820312 0-45.265625 17.625-87.816407 49.628906-119.820313 32.007813-32.007812 74.5625-49.632812 119.824219-49.632812s87.816407 17.625 119.820313 49.632812c32.003906 32.003906 49.632812 74.554688 49.632812 119.820313 0 45.261719-17.628906 87.816406-49.632812 119.820312zm0 0" data-original="#000000" class="active-path" data-old_color="#000000" fill="#C0C0C0"/><path d="m312.566406 123.398438c-28.546875 0-51.769531 23.222656-51.769531 51.765624 0 28.542969 23.222656 51.765626 51.769531 51.765626 28.542969 0 51.761719-23.222657 51.761719-51.765626.003906-28.542968-23.21875-51.765624-51.761719-51.765624zm0 73.535156c-12.007812 0-21.773437-9.765625-21.773437-21.769532 0-12.003906 9.765625-21.769531 21.773437-21.769531 12 0 21.765625 9.765625 21.765625 21.769531.003907 12.003907-9.761719 21.769532-21.765625 21.769532zm0 0" data-original="#000000" class="active-path" data-old_color="#000000" fill="#C0C0C0"/></g> </svg>
