      <svg width="30" height="30" viewBox="0 0 30 30" fill="none" xmlns="http://www.w3.org/2000/svg">
                            <path d="M29.9571 15C29.9571 6.73771 23.2604 0.0409851 14.9981 0.0409851C6.73578 0.0409851 0.0390625 6.73771 0.0390625 15C0.0390625 22.4672 5.50628 28.6557 12.662 29.7787V19.3279H8.86693V15H12.662V11.7049C12.662 7.95902 14.8915 5.88525 18.3096 5.88525C19.9489 5.88525 21.662 6.18033 21.662 6.18033V9.86066H19.7768C17.9161 9.86066 17.3423 11.0164 17.3423 12.1967V15H21.4899L20.8259 19.3279H17.3423V29.7787C24.4899 28.6557 29.9571 22.4672 29.9571 15Z" fill="#1877F2"/>
                            <path d="M20.8184 19.3279L21.4823 15H17.3348V12.1967C17.3348 11.0164 17.9168 9.86066 19.7692 9.86066H21.6545V6.18034C21.6545 6.18034 19.9413 5.88525 18.302 5.88525C14.884 5.88525 12.6545 7.95902 12.6545 11.7049V15H8.85938V19.3279H12.6545V29.7787C13.4168 29.9016 14.1954 29.959 14.9905 29.959C15.7856 29.959 16.5643 29.8934 17.3266 29.7787V19.3279H20.8184Z" fill="white"/>
                        </svg>
