<svg width="28" height="28" viewBox="0 0 28 28" fill="none" xmlns="http://www.w3.org/2000/svg">
<path fill-rule="evenodd" clip-rule="evenodd" d="M27.2285 4.85792C27.5727 5.74535 27.8099 6.76284 27.8787 8.24699C27.9476 9.73114 27.9629 10.2131 27.9629 14C27.9629 17.7869 27.9476 18.2612 27.8787 19.753C27.8099 21.2372 27.5727 22.2546 27.2285 23.1421C26.8765 24.0601 26.3946 24.8404 25.6219 25.6131C24.8492 26.3858 24.0689 26.8601 23.1509 27.2197C22.2634 27.5639 21.2459 27.8011 19.7618 27.8699C18.2776 27.9388 17.8033 27.9541 14.0088 27.9541C10.2219 27.9541 9.74758 27.9388 8.25578 27.8699C6.77163 27.8011 5.75414 27.5639 4.86671 27.2197C3.94868 26.8678 3.16835 26.3858 2.39567 25.6131C1.62299 24.8404 1.14868 24.0601 0.789114 23.1421C0.444851 22.2546 0.207693 21.2372 0.138841 19.753C0.069988 18.2688 0.0546875 17.7945 0.0546875 14C0.0546875 10.2131 0.069988 9.73879 0.138841 8.24699C0.207693 6.76284 0.444851 5.74535 0.789114 4.85792C1.14103 3.93989 1.62299 3.15956 2.39567 2.38688C3.16835 1.6142 3.94868 1.13989 4.86671 0.780325C5.75414 0.436062 6.77163 0.198904 8.25578 0.130051C9.73993 0.061199 10.2143 0.0458984 14.0088 0.0458984C17.7957 0.0458984 18.27 0.061199 19.7618 0.130051C21.2459 0.198904 22.2634 0.436062 23.1509 0.780325C24.0689 1.13224 24.8492 1.6142 25.6219 2.38688C26.3946 3.15956 26.8689 3.93989 27.2285 4.85792ZM24.8875 22.2317C25.0787 21.7421 25.3082 21 25.3694 19.6382L25.3744 19.5186C25.4319 18.1423 25.4536 17.6226 25.4536 14C25.4536 10.2743 25.4383 9.8306 25.3694 8.36175C25.3082 7 25.0787 6.25792 24.8875 5.7683C24.6274 5.11803 24.329 4.65136 23.8394 4.16175C23.3498 3.67213 22.8831 3.36612 22.2328 3.11366C21.7432 2.9224 21.0011 2.69289 19.6394 2.63169C18.1705 2.56284 17.7268 2.54754 14.0011 2.54754C10.2755 2.54754 9.83174 2.56284 8.36288 2.63169C7.00114 2.69289 6.25906 2.9224 5.76944 3.11366C5.11917 3.37377 4.6525 3.67213 4.16288 4.16175C3.67327 4.65136 3.36726 5.11803 3.1148 5.7683C2.92354 6.25792 2.69403 7 2.63283 8.36175C2.56398 9.8306 2.54868 10.2743 2.54868 14C2.54868 17.7257 2.56398 18.1694 2.63283 19.6382C2.69403 21 2.92354 21.7421 3.1148 22.2317C3.37491 22.882 3.67327 23.3486 4.16288 23.8382C4.6525 24.3279 5.11917 24.6339 5.76944 24.8863C6.25906 25.0776 7.00114 25.3071 8.36288 25.3683C9.83174 25.4372 10.2755 25.4525 14.0011 25.4525C17.7268 25.4525 18.1705 25.4372 19.6394 25.3683C21.0011 25.3071 21.7432 25.0776 22.2328 24.8863C22.8831 24.6262 23.3498 24.3279 23.8394 23.8382C24.329 23.3486 24.635 22.882 24.8875 22.2317Z" fill="url(#paint0_linear)"/>
<path fill-rule="evenodd" clip-rule="evenodd" d="M6.83203 14C6.83203 10.0448 10.0375 6.8317 14.0003 6.8317C17.9632 6.8317 21.1686 10.0372 21.1686 14C21.1686 17.9552 17.9555 21.1683 14.0003 21.1683C10.0451 21.1683 6.83203 17.9628 6.83203 14ZM9.34897 14C9.34897 16.5705 11.4298 18.6514 14.0003 18.6514C16.5708 18.6514 18.6517 16.5705 18.6517 14C18.6517 11.4295 16.5708 9.34864 14.0003 9.34864C11.4298 9.34864 9.34897 11.4295 9.34897 14Z" fill="url(#paint1_linear)"/>
<circle cx="21.4528" cy="6.54864" r="1.67541" fill="#BC30A0"/>
<path fill-rule="evenodd" clip-rule="evenodd" d="M0.123216 19.753C0.054363 18.2688 0.0390625 17.7945 0.0390625 14C0.0390625 10.2055 0.054363 9.73114 0.123216 8.24699C0.192068 6.76284 0.429226 5.74535 0.773489 4.85792C1.1254 3.93989 1.60737 3.15956 2.38005 2.38688C3.15272 1.6142 3.93305 1.13989 4.85108 0.780325C5.73852 0.436062 6.756 0.198904 8.24016 0.130051C9.72431 0.061199 10.1986 0.0458984 13.9932 0.0458984C17.78 0.0458984 18.2544 0.061199 19.7462 0.130051C21.2303 0.198904 22.2478 0.436062 23.1352 0.780325C24.0533 1.13224 24.8336 1.6142 25.6063 2.38688C26.379 3.15956 26.8533 3.93989 27.2128 4.85792C27.5571 5.74535 27.7943 6.76284 27.8631 8.24699C27.932 9.73114 27.9473 10.2055 27.9473 14C27.9473 17.7869 27.932 18.2612 27.8631 19.753C27.7943 21.2372 27.5571 22.2546 27.2128 23.1421C26.8609 24.0601 26.379 24.8404 25.6063 25.6131C24.8336 26.3858 24.0533 26.8601 23.1352 27.2197C22.2478 27.5639 21.2303 27.8011 19.7462 27.8699C18.262 27.9388 17.7877 27.9541 13.9932 27.9541C10.2063 27.9541 9.73196 27.9388 8.24016 27.8699C6.756 27.8011 5.73852 27.5639 4.85108 27.2197C3.93305 26.8678 3.15272 26.3858 2.38005 25.6131C1.60737 24.8404 1.13305 24.0601 0.773489 23.1421C0.429226 22.2546 0.192068 21.2372 0.123216 19.753ZM2.64016 8.36175C2.5713 9.8306 2.556 10.2743 2.556 14C2.556 17.7257 2.5713 18.1694 2.64016 19.6382C2.70136 21 2.93087 21.7421 3.12212 22.2317C3.38223 22.882 3.68059 23.3486 4.17021 23.8382C4.65983 24.3279 5.12649 24.6339 5.77677 24.8863C6.26639 25.0776 7.00846 25.3071 8.37021 25.3683C9.83906 25.4372 10.2828 25.4525 14.0085 25.4525C17.7341 25.4525 18.1779 25.4372 19.6467 25.3683C21.0085 25.3071 21.7505 25.0776 22.2402 24.8863C22.8904 24.6262 23.3571 24.3279 23.8467 23.8382C24.3363 23.3486 24.6423 22.882 24.8948 22.2317C25.0861 21.7421 25.3156 21 25.3768 19.6382C25.4456 18.1694 25.4609 17.7257 25.4609 14C25.4609 10.2743 25.4456 9.8306 25.3768 8.36175C25.3156 7 25.0861 6.25792 24.8948 5.7683C24.6347 5.11803 24.3363 4.65136 23.8467 4.16175C23.3571 3.67213 22.8904 3.36612 22.2402 3.11366C21.7505 2.9224 21.0085 2.69289 19.6467 2.63169C18.1779 2.56284 17.7341 2.54754 14.0085 2.54754C10.2828 2.54754 9.83906 2.56284 8.37021 2.63169C7.00846 2.69289 6.26639 2.9224 5.77677 3.11366C5.12649 3.37377 4.65983 3.67213 4.17021 4.16175C3.68059 4.65136 3.37458 5.11803 3.12212 5.7683C2.93087 6.25792 2.70136 7 2.64016 8.36175Z" fill="url(#paint2_linear)"/>
<defs>
<linearGradient id="paint0_linear" x1="-6.13514" y1="2.37968" x2="3.00939" y2="32.9717" gradientUnits="userSpaceOnUse">
<stop stop-color="#4367DC"/>
<stop offset="0.0428861" stop-color="#4C62D6"/>
<stop offset="0.1142" stop-color="#6654C7"/>
<stop offset="0.2045" stop-color="#8F3DAE"/>
<stop offset="0.2341" stop-color="#9E35A5"/>
<stop offset="0.4512" stop-color="#D42F7F"/>
<stop offset="0.8242" stop-color="#D73578"/>
</linearGradient>
<linearGradient id="paint1_linear" x1="11.2578" y1="4.58359" x2="3.92676" y2="16.9096" gradientUnits="userSpaceOnUse">
<stop offset="0.3304" stop-color="#D42F7F"/>
<stop offset="1" stop-color="#F7772E"/>
</linearGradient>
<linearGradient id="paint2_linear" x1="5.60733" y1="-7.26946" x2="-6.73862" y2="22.1766" gradientUnits="userSpaceOnUse">
<stop offset="0.2341" stop-color="#9E35A5" stop-opacity="0.01"/>
<stop offset="0.4512" stop-color="#D42F7F" stop-opacity="0.5"/>
<stop offset="0.7524" stop-color="#F7772E"/>
<stop offset="0.9624" stop-color="#FEF780"/>
</linearGradient>
</defs>
</svg>

